<svg width="87" height="27" viewBox="0 0 87 27" fill="none" xmlns="http://www.w3.org/2000/svg">
<path d="M6.426 12.852C5.538 12.852 4.704 12.696 3.924 12.384C3.144 12.072 2.46 11.634 1.872 11.07C1.296 10.494 0.84 9.816 0.504 9.036C0.168 8.244 0 7.374 0 6.426C0 5.478 0.168 4.614 0.504 3.834C0.84 3.054 1.296 2.376 1.872 1.8C2.46 1.224 3.144 0.78 3.924 0.467999C4.704 0.156 5.538 0 6.426 0C7.326 0 8.16 0.156 8.928 0.467999C9.708 0.78 10.392 1.224 10.98 1.8C11.568 2.376 12.024 3.054 12.348 3.834C12.684 4.614 12.852 5.478 12.852 6.426C12.852 7.374 12.684 8.244 12.348 9.036C12.024 9.816 11.568 10.494 10.98 11.07C10.392 11.634 9.708 12.072 8.928 12.384C8.16 12.696 7.326 12.852 6.426 12.852ZM6.444 10.782C7.2 10.782 7.872 10.602 8.46 10.242C9.06 9.87 9.528 9.36 9.864 8.712C10.212 8.064 10.386 7.302 10.386 6.426C10.386 5.55 10.212 4.788 9.864 4.14C9.528 3.492 9.06 2.988 8.46 2.628C7.872 2.256 7.2 2.07 6.444 2.07C5.664 2.07 4.974 2.256 4.374 2.628C3.786 2.988 3.324 3.492 2.988 4.14C2.652 4.788 2.484 5.55 2.484 6.426C2.484 7.29 2.652 8.052 2.988 8.712C3.324 9.372 3.786 9.882 4.374 10.242C4.974 10.602 5.664 10.782 6.444 10.782Z" fill="white"/>
<path d="M14.0625 6.426C14.0625 5.478 14.2245 4.614 14.5485 3.834C14.8725 3.042 15.3225 2.364 15.8985 1.8C16.4745 1.224 17.1465 0.78 17.9145 0.467999C18.6945 0.156 19.5345 0 20.4345 0C21.7305 0 22.8765 0.312 23.8725 0.936C24.8805 1.548 25.6365 2.43 26.1405 3.582L24.1065 4.176C23.8425 3.672 23.5125 3.264 23.1165 2.952C22.7325 2.64 22.3125 2.412 21.8565 2.268C21.4005 2.124 20.9385 2.052 20.4705 2.052C19.7025 2.052 19.0185 2.238 18.4185 2.61C17.8185 2.97 17.3505 3.48 17.0145 4.14C16.6905 4.8 16.5285 5.562 16.5285 6.426C16.5285 7.29 16.6905 8.052 17.0145 8.712C17.3505 9.36 17.8185 9.87 18.4185 10.242C19.0185 10.614 19.7025 10.8 20.4705 10.8C20.9505 10.8 21.4245 10.728 21.8925 10.584C22.3725 10.428 22.8165 10.17 23.2245 9.81C23.6325 9.45 23.9805 8.97 24.2685 8.37L26.2665 8.928C25.7505 10.236 24.9825 11.22 23.9625 11.88C22.9425 12.528 21.7665 12.852 20.4345 12.852C19.5345 12.852 18.6945 12.696 17.9145 12.384C17.1465 12.072 16.4745 11.628 15.8985 11.052C15.3225 10.476 14.8725 9.798 14.5485 9.018C14.2245 8.226 14.0625 7.362 14.0625 6.426Z" fill="white"/>
<path d="M27.6855 0.125999H37.9095V2.16H34.0215V12.726H31.5915V2.16H27.6855V0.125999Z" fill="white"/>
<path d="M45.5373 12.852C44.6493 12.852 43.8153 12.696 43.0353 12.384C42.2553 12.072 41.5713 11.634 40.9833 11.07C40.4073 10.494 39.9513 9.816 39.6153 9.036C39.2793 8.244 39.1113 7.374 39.1113 6.426C39.1113 5.478 39.2793 4.614 39.6153 3.834C39.9513 3.054 40.4073 2.376 40.9833 1.8C41.5713 1.224 42.2553 0.78 43.0353 0.467999C43.8153 0.156 44.6493 0 45.5373 0C46.4373 0 47.2713 0.156 48.0393 0.467999C48.8193 0.78 49.5033 1.224 50.0913 1.8C50.6793 2.376 51.1353 3.054 51.4593 3.834C51.7953 4.614 51.9633 5.478 51.9633 6.426C51.9633 7.374 51.7953 8.244 51.4593 9.036C51.1353 9.816 50.6793 10.494 50.0913 11.07C49.5033 11.634 48.8193 12.072 48.0393 12.384C47.2713 12.696 46.4373 12.852 45.5373 12.852ZM45.5553 10.782C46.3113 10.782 46.9833 10.602 47.5713 10.242C48.1713 9.87 48.6393 9.36 48.9753 8.712C49.3233 8.064 49.4973 7.302 49.4973 6.426C49.4973 5.55 49.3233 4.788 48.9753 4.14C48.6393 3.492 48.1713 2.988 47.5713 2.628C46.9833 2.256 46.3113 2.07 45.5553 2.07C44.7753 2.07 44.0853 2.256 43.4853 2.628C42.8973 2.988 42.4353 3.492 42.0993 4.14C41.7633 4.788 41.5953 5.55 41.5953 6.426C41.5953 7.29 41.7633 8.052 42.0993 8.712C42.4353 9.372 42.8973 9.882 43.4853 10.242C44.0853 10.602 44.7753 10.782 45.5553 10.782Z" fill="white"/>
<path d="M58.8978 5.886C59.3778 5.886 59.7738 5.814 60.0858 5.67C60.3978 5.514 60.6258 5.298 60.7698 5.022C60.9258 4.734 61.0038 4.398 61.0038 4.014C61.0038 3.426 60.8298 2.97 60.4818 2.646C60.1458 2.322 59.6178 2.16 58.8978 2.16H56.2158V5.886H58.8978ZM63.4878 4.014C63.4878 4.482 63.4038 4.95 63.2358 5.418C63.0678 5.874 62.8038 6.294 62.4438 6.678C62.0838 7.05 61.6158 7.35 61.0398 7.578C60.4758 7.806 59.7858 7.92 58.9698 7.92H56.2158V12.726H53.7858V0.125999H58.9698C59.9898 0.125999 60.8298 0.306 61.4898 0.666C62.1618 1.014 62.6598 1.488 62.9838 2.088C63.3198 2.676 63.4878 3.318 63.4878 4.014Z" fill="white"/>
<path d="M65.2451 0.125999H67.6751V8.082C67.6751 8.67 67.7951 9.168 68.0351 9.576C68.2751 9.972 68.5991 10.272 69.0071 10.476C69.4271 10.68 69.9071 10.782 70.4471 10.782C70.9991 10.782 71.4851 10.68 71.9051 10.476C72.3251 10.272 72.6551 9.972 72.8951 9.576C73.1351 9.168 73.2551 8.67 73.2551 8.082V0.125999H75.6851V7.956C75.6851 8.784 75.5411 9.504 75.2531 10.116C74.9651 10.728 74.5691 11.238 74.0651 11.646C73.5731 12.054 73.0091 12.36 72.3731 12.564C71.7491 12.756 71.0951 12.852 70.4111 12.852C69.4991 12.852 68.6471 12.672 67.8551 12.312C67.0751 11.952 66.4451 11.412 65.9651 10.692C65.4851 9.972 65.2451 9.06 65.2451 7.956V0.125999Z" fill="white"/>
<path d="M79.8428 9.162C79.9028 9.498 80.0348 9.792 80.2388 10.044C80.4428 10.296 80.7068 10.494 81.0308 10.638C81.3668 10.77 81.7568 10.836 82.2008 10.836C82.8968 10.836 83.4188 10.68 83.7668 10.368C84.1148 10.044 84.2888 9.654 84.2888 9.198C84.2888 8.838 84.1808 8.538 83.9648 8.298C83.7488 8.058 83.4428 7.854 83.0468 7.686C82.6628 7.518 82.2128 7.356 81.6968 7.2C81.2168 7.056 80.7428 6.9 80.2748 6.732C79.8068 6.564 79.3808 6.354 78.9968 6.102C78.6128 5.85 78.3068 5.526 78.0788 5.13C77.8628 4.722 77.7548 4.212 77.7548 3.6C77.7548 2.832 77.9408 2.178 78.3128 1.638C78.6968 1.098 79.2188 0.69 79.8788 0.414C80.5388 0.138 81.3008 0 82.1648 0C82.8968 0 83.5568 0.108 84.1448 0.324C84.7328 0.528 85.2248 0.834 85.6208 1.242C86.0288 1.638 86.3288 2.13 86.5208 2.718L84.2708 3.33C84.2108 3.066 84.0788 2.838 83.8748 2.646C83.6708 2.454 83.4248 2.304 83.1368 2.196C82.8488 2.076 82.5368 2.016 82.2008 2.016C81.8408 2.004 81.5108 2.058 81.2108 2.178C80.9108 2.298 80.6708 2.472 80.4908 2.7C80.3108 2.928 80.2208 3.192 80.2208 3.492C80.2208 3.828 80.3228 4.098 80.5268 4.302C80.7308 4.494 81.0008 4.662 81.3368 4.806C81.6728 4.938 82.0508 5.07 82.4708 5.202C82.9748 5.346 83.4788 5.514 83.9828 5.706C84.4868 5.886 84.9488 6.12 85.3688 6.408C85.7888 6.684 86.1248 7.038 86.3768 7.47C86.6408 7.902 86.7728 8.448 86.7728 9.108C86.7728 9.804 86.6048 10.434 86.2688 10.998C85.9448 11.562 85.4528 12.012 84.7928 12.348C84.1328 12.684 83.3048 12.852 82.3088 12.852C81.4928 12.852 80.7488 12.732 80.0768 12.492C79.4168 12.252 78.8708 11.904 78.4388 11.448C78.0068 10.98 77.7248 10.428 77.5928 9.792L79.8428 9.162Z" fill="white"/>
<path d="M25.5 14.148V26.748H23.016L17.508 18V26.748H15.078V14.148H17.544L23.07 22.896V14.148H25.5Z" fill="#15B2F5"/>
<path d="M49.218 18.036C49.218 17.472 49.044 17.022 48.696 16.686C48.36 16.35 47.832 16.182 47.112 16.182H44.43V19.908H47.112C47.592 19.908 47.988 19.836 48.3 19.692C48.612 19.536 48.84 19.32 48.984 19.044C49.14 18.756 49.218 18.42 49.218 18.036ZM47.184 14.148C48.204 14.148 49.044 14.328 49.704 14.688C50.376 15.036 50.874 15.51 51.198 16.11C51.534 16.698 51.702 17.34 51.702 18.036C51.702 18.504 51.618 18.972 51.45 19.44C51.282 19.896 51.018 20.316 50.658 20.7C50.298 21.072 49.83 21.372 49.254 21.6C48.69 21.828 48 21.942 47.184 21.942H44.43V26.748H42V14.148H47.184ZM48.552 21.132L51.954 26.748H49.236L45.978 21.132H48.552Z" fill="#15B2F5"/>
<path d="M63.1185 18.144C62.7225 17.412 62.2245 16.89 61.6245 16.578C61.0245 16.254 60.3765 16.092 59.6805 16.092C58.9245 16.092 58.2465 16.278 57.6465 16.65C57.0465 17.022 56.5665 17.538 56.2065 18.198C55.8585 18.846 55.6845 19.596 55.6845 20.448C55.6845 21.312 55.8525 22.074 56.1885 22.734C56.5365 23.382 57.0105 23.892 57.6105 24.264C58.2225 24.624 58.9185 24.804 59.6985 24.804C60.2145 24.804 60.6945 24.714 61.1385 24.534C61.5945 24.354 61.9905 24.108 62.3265 23.796C62.6745 23.484 62.9565 23.118 63.1725 22.698V21.654H59.7345V19.71H65.5485V23.004C65.2605 23.7 64.8345 24.348 64.2705 24.948C63.7065 25.536 63.0285 26.004 62.2365 26.352C61.4565 26.7 60.5865 26.874 59.6265 26.874C58.7025 26.874 57.8505 26.718 57.0705 26.406C56.3025 26.094 55.6245 25.656 55.0365 25.092C54.4605 24.516 54.0105 23.838 53.6865 23.058C53.3625 22.266 53.2005 21.396 53.2005 20.448C53.2005 19.512 53.3625 18.654 53.6865 17.874C54.0105 17.082 54.4605 16.398 55.0365 15.822C55.6125 15.246 56.2905 14.802 57.0705 14.49C57.8505 14.178 58.6965 14.022 59.6085 14.022C60.4485 14.022 61.2465 14.16 62.0025 14.436C62.7585 14.7 63.4245 15.09 64.0005 15.606C64.5765 16.11 65.0205 16.728 65.3325 17.46L63.1185 18.144Z" fill="#15B2F5"/>
<path d="M75.8043 14.148H78.5403L73.8243 22.32V26.748H71.3943V22.338L66.6783 14.148H69.3963L72.6003 19.998L75.8043 14.148Z" fill="#15B2F5"/>
<path d="M13 16.308H0V14.274H13V16.308Z" fill="#15B2F5"/>
<path d="M0 19.512H11.38V21.474H0V19.512Z" fill="#15B2F5"/>
<path d="M0 24.84H13V26.874H0V24.84Z" fill="#15B2F5"/>
<path d="M40 16.308H27V14.274H40V16.308Z" fill="#15B2F5"/>
<path d="M27 19.512H38.38V21.474H27V19.512Z" fill="#15B2F5"/>
<path d="M27 24.84H40V26.874H27V24.84Z" fill="#15B2F5"/>
</svg>
