<svg width="22" height="22" viewBox="0 0 22 22" fill="none" xmlns="http://www.w3.org/2000/svg">
<path d="M10.5644 0.646811C10.7557 0.307489 11.2443 0.307488 11.4356 0.646811L14.6965 6.43224C14.7678 6.55883 14.8907 6.64811 15.0332 6.67685L21.5431 7.99037C21.9249 8.06741 22.0759 8.53213 21.8123 8.81888L17.3177 13.708C17.2194 13.815 17.1724 13.9594 17.1891 14.1038L17.9516 20.701C17.9963 21.0879 17.601 21.3752 17.2468 21.2131L11.2081 18.4493C11.076 18.3888 10.924 18.3888 10.7919 18.4493L4.7532 21.2131C4.39902 21.3752 4.0037 21.0879 4.04842 20.701L4.81088 14.1038C4.82756 13.9594 4.78062 13.815 4.68228 13.708L0.187687 8.81888C-0.0759266 8.53213 0.0750707 8.06741 0.456887 7.99037L6.96683 6.67685C7.10927 6.64811 7.23217 6.55883 7.30352 6.43224L10.5644 0.646811Z" fill="#15B2F5"/>
</svg>
